<?xml version="1.0" standalone="no"?> <!DOCTYPE svg PUBLIC "-//W3C//DTD SVG 1.0//EN" "http://www.w3.org/TR/2001/REC-SVG-20010904/DTD/svg10.dtd" > <svg xmlns="http://www.w3.org/2000/svg" width="100%" height="100%">
<defs >
<font id="gara" horiz-adv-x="793" ><font-face
    font-family="Garamond"
    units-per-em="2048"
    panose-1="2 2 4 4 3 3 1 1 8 3"
    ascent="1765"
    descent="-539"
    alphabetic="0" />
<missing-glyph horiz-adv-x="1536" d="M0 0V1280H1024V0H0ZM32 32H992V1248H32V32Z" />
<glyph unicode=" " glyph-name="space" horiz-adv-x="512" />
<glyph unicode="!" glyph-name="exclam" horiz-adv-x="448" d="M243 290Q233 288 228 288Q221 288 207 291L175 867Q172 927 158 1020Q138 1144 138 1198Q138 1252 163 1279T224 1307Q263 1307 290 1280T317 1202Q317 1156 297 983Q258 651 256 552L248 312Q247
304 243 290ZM125 79Q125 121 155 151T230 182Q272 182 300 153T329 85Q329 47 296 11T230 -25Q194 -25 160 10T125 79Z" />
<glyph unicode="&quot;" glyph-name="quotedbl" horiz-adv-x="832" d="M210 803L155 1099Q133 1221 133 1265Q133 1329 159 1358T231 1387Q274 1387 303 1358T333 1281Q333 1239 307 1098L253 803H210ZM576 803L522 1095L500 1216Q498 1241 498 1266Q498 1329
526 1358T600 1387Q643 1387 671 1358T700 1282Q700 1195 681 1096L624 803H576Z" />
<glyph unicode="#" glyph-name="numbersign" horiz-adv-x="1365" d="M94 949H429L517 1365H604L516 949H971L1058 1365H1146L1058 949H1271V861H1041L956 455H1271V367H938L853 -47H764L851 367H393L309 -47H220L306 367H94V455H325L410 861H94V949ZM497 861L412
457H869L954 861H497Z" />
<glyph unicode="$" glyph-name="dollar" horiz-adv-x="917" d="M335 59Q346 128 347 383L349 434L343 626Q282 652 212 704T114 813T86 945Q86 1046 146 1125T315 1237L333 1243V1257Q333 1265 339 1342L376 1341Q381 1278 381 1246Q420 1250 444 1250Q470 1250
502 1246Q522 1244 535 1243V1257Q535 1277 538 1340H581Q584 1321 584 1290Q584 1258 585 1237Q663 1217 702 1198T779 1146Q789 1138 816 1102Q825 1085 825 1059Q825 1034 807 1017T763 1000Q744 1000 712 1025Q703 1037 683 1059Q632 1132 619 1143T578 1162Q571
1052 571 1023Q571 1013 573 988Q577 950 577 858L575 660Q581 654 591 649L685 587Q726 560 751 525Q799 457 817 403Q829 365 829 307Q829 201 767 120T608 8Q587 2 569 -7Q559 -54 559 -63L562 -202Q562 -214 556 -273H517Q515 -235 515 -217Q515 -202 518 -131Q519
-110 519 -96Q519 -80 517 -57T515 -16Q488 -21 384 -23Q376 -73 374 -153T369 -272H332Q335 -192 335 -23Q321 -20 299 -15Q188 10 137 61T85 162Q85 185 103 201T144 218Q189 218 253 134Q300 72 335 59ZM378 759Q409 741 507 694Q518 686 529 683Q530 719 530
725L536 1017L535 1075L536 1104Q536 1147 528 1191Q480 1200 437 1200Q403 1200 375 1190L377 1047L375 913Q378 857 378 827L377 781Q377 776 378 759ZM332 780Q335 823 335 835V898Q337 988 337 1022Q337 1140 332 1181Q255 1162 220 1115Q171 1050 171 984Q171
936 215 875T332 780ZM377 45Q422 28 477 28Q502 28 524 35L526 51L527 119L530 280L529 409V481Q529 495 526 530Q455 576 392 598Q387 584 387 578L375 163L376 145V97Q377 59 377 45ZM569 52Q643 83 679 137T716 268Q716 311 703 341Q674 407 650 432Q615 470
578 490Q575 471 574 459L572 253L565 84L566 75L569 52Z" />
<glyph unicode="%" glyph-name="percent" horiz-adv-x="1685" d="M367 -67Q376 -48 388 -30T419 20Q426 31 493 132T586 275Q1033 1033 1233 1304L1243 1305Q1290 1302 1296 1302L859 617L660 288L430 -65H423Q418 -65 375 -67H367ZM584 954Q584 796 505 703T327
609Q227 609 151 698T74 944Q74 1052 113 1146Q143 1216 203 1260T332 1304Q402 1304 463 1258T561 1121Q584 1060 584 954ZM472 935Q472 1083 464 1128Q450 1204 416 1236T332 1268Q265 1268 227 1211T189 931Q189 756 228 700T326 644Q394 644 428 692Q472 755
472 935ZM1617 329Q1617 171 1537 78T1359 -15Q1260 -15 1183 74T1106 319Q1106 428 1146 522Q1175 591 1235 635T1364 680Q1434 680 1496 634T1593 496Q1617 436 1617 329ZM1505 311Q1505 458 1496 503Q1482 580 1448 611T1364 643Q1298 643 1260 586T1221 307Q1221
131 1260 75T1359 19Q1426 19 1460 67Q1505 130 1505 311Z" />
<glyph unicode="&amp;" glyph-name="ampersand" horiz-adv-x="1493" d="M446 712Q352 832 326 889T299 997Q299 1085 372 1151T580 1217Q705 1217 773 1153T842 994Q842 904 796 844T644 737Q679 688 756 601Q782 572 795 555L966 342Q1051 438 1091 516T1132
637Q1132 666 1114 687T1050 720Q1046 730 1046 735L1048 744L1163 755Q1198 760 1262 762T1440 773L1442 761Q1442 755 1438 744Q1368 714 1319 676T1169 520T996 303Q1123 151 1174 117T1285 82Q1350 82 1398 121Q1430 146 1444 146Q1449 146 1461 142Q1439 48
1420 33Q1344 -30 1253 -30Q1197 -30 1149 -13T1048 42Q1018 64 947 133Q902 177 888 189Q808 109 769 80Q700 29 619 0T432 -29Q303 -29 218 25T94 165T55 329Q55 389 77 444T135 539T232 621Q253 635 335 676Q386 701 446 712ZM607 775Q663 799 695 856T727 977Q727
1072 683 1122T571 1173Q510 1173 472 1137T434 1049Q434 996 474 933Q531 845 607 775ZM861 226L853 237L850 241L627 507Q586 558 475 680Q350 633 286 546T221 362Q221 335 237 286T297 191T406 118T557 92Q655 92 734 130T861 226Z" />
<glyph unicode="&apos;" glyph-name="quotesingle" horiz-adv-x="363" d="M158 803L104 1099Q81 1222 81 1265Q81 1329 107 1358T178 1387Q223 1387 252 1358T282 1282Q282 1242 256 1098L202 803H158Z" />
<glyph unicode="(" glyph-name="parenleft" horiz-adv-x="597" d="M608 1309Q619 1282 634 1256Q623 1245 579 1205Q513 1143 478 1092Q387 961 344 870T276 659T251 377Q251 266 271 162T344 -59T483 -299Q522 -356 579 -406Q589 -415 614 -440L628 -454L607
-502Q520 -451 454 -372Q340 -237 277 -109T191 141Q157 328 157 410Q157 546 192 692T309 985Q364 1084 469 1199Q535 1271 608 1309Z" />
<glyph unicode=")" glyph-name="parenright" horiz-adv-x="597" d="M-44 -448Q-13 -418 8 -399Q76 -340 121 -273Q215 -135 249 -62Q296 39 320 158T345 409Q345 563 318 677T230 916T102 1128Q90 1145 -27 1262L-7 1311Q74 1263 143 1184Q248 1063 316 927T405
669Q438 481 438 389Q438 273 405 128T287 -172Q222 -290 104 -410Q53 -462 -18 -500Q-28 -475 -44 -448Z" />
<glyph unicode="*" glyph-name="asterisk" horiz-adv-x="875" d="M59 725Q104 759 358 883L370 892Q349 906 311 927Q305 930 222 979Q206 989 68 1063Q85 1101 105 1133Q344 971 397 942Q398 972 398 978L397 1085L399 1184Q399 1235 394 1293Q435 1294 471 1293V1272Q471
1252 465 1152L458 1004Q456 987 456 979Q456 966 460 941Q480 952 495 964Q585 1031 767 1127Q786 1095 805 1060Q787 1049 604 955Q499 901 490 895Q520 876 553 860Q601 837 610 832L713 775Q753 756 763 751Q777 742 803 724Q787 695 763 659Q752 665 679 711T585
771Q508 826 460 846L459 818Q459 617 466 557Q471 523 471 493L442 492Q426 492 394 498Q393 518 393 533V560L398 793L400 838Q360 818 277 764T95 660L59 725Z" />
<glyph unicode="+" glyph-name="plus" horiz-adv-x="1365" d="M145 678H637V1173H725V678H1220V590H725V101H637V590H145V678Z" />
<glyph unicode="," glyph-name="comma" horiz-adv-x="448" d="M84 -356L85 -325Q97 -319 109 -314Q214 -264 249 -211T285 -115Q285 -87 265 -66Q245 -45 197 -35T133 -18Q123 -14 108 2Q98 23 98 42Q98 89 117 106Q157 141 200 141Q276 141 332 83T388 -64Q388
-125 348 -196T227 -311T84 -356Z" />
<glyph unicode="-" glyph-name="hyphen" horiz-adv-x="640" d="M82 442H96L174 441L308 446L406 443L457 445Q528 445 562 436L564 357Q502 352 464 352Q429 352 393 355Q345 358 335 358L293 357Q275 356 250 356Q125 356 78 367L76 396Q76 413 82 442Z" />
<glyph unicode="." glyph-name="period" horiz-adv-x="448" d="M120 81Q120 125 152 158T228 191Q270 191 299 160T328 82Q328 35 298 3T224 -29Q182 -29 151 3T120 81Z" />
<glyph unicode="/" glyph-name="slash" horiz-adv-x="1024" d="M820 1426H908L203 -277H116L820 1426Z" />
<glyph unicode="0" glyph-name="zero" horiz-adv-x="960" d="M896 631Q896 528 881 448Q854 310 806 217T692 60Q644 13 590 -8T480 -30Q381 -30 293 36T138 254T72 612Q72 773 112 921T217 1150T347 1268T488 1304Q595 1304 695 1220T856 959Q896 840 896 631ZM746
664Q745 910 728 998Q700 1143 637 1201T488 1259Q417 1259 354 1213T266 1069Q225 910 225 587Q225 267 288 140T479 12Q566 12 629 66T720 266T747 595L746 664Z" />
<glyph unicode="1" glyph-name="one" horiz-adv-x="960" d="M726 2H268Q267 11 267 17Q267 34 274 40T318 54Q376 66 412 83Q422 105 422 124V186Q422 197 425 287Q426 321 427 581L429 816L427 953Q427 983 429 1142Q202 980 180 980Q172 980 163 988T154 1005Q154
1015 161 1021Q175 1034 228 1064Q236 1068 297 1118Q394 1199 439 1245T494 1297Q514 1298 525 1298Q551 1298 557 1290T564 1228L557 337V249Q557 217 556 185T555 137Q555 101 564 90Q570 83 601 72L669 58Q713 47 717 43Q727 34 727 15L726 2Z" />
<glyph unicode="2" glyph-name="two" horiz-adv-x="960" d="M873 2Q723 8 471 8L254 2L157 5L80 2Q68 3 45 7Q63 49 91 84Q174 186 334 347Q558 572 629 700T700 942Q700 1048 628 1120T451 1192Q388 1192 329 1163T234 1088Q211 1059 173 972Q152 924 148 920Q142
913 134 913Q126 913 119 921T111 943Q111 988 156 1087T290 1242T496 1298Q649 1298 751 1199T854 961Q854 852 784 740T462 395Q379 319 344 283T203 127Q356 121 481 121Q508 121 540 123Q599 125 609 125L748 122Q771 122 795 144T860 268L884 269Q889 269
899 268Q904 258 904 253L902 245Q894 216 888 139Q884 94 873 2Z" />
<glyph unicode="3" glyph-name="three" horiz-adv-x="960" d="M171 1008L138 1026Q201 1179 288 1241T491 1304Q599 1304 664 1256Q761 1184 761 1094Q761 1021 712 947T538 781L562 782Q640 782 712 743T827 620T869 440Q869 247 728 110T367 -28Q201 -28 122
20Q79 45 79 83Q79 104 96 121T140 138Q173 138 220 102Q331 17 413 17Q537 17 633 121T729 385Q729 517 665 601T501 686Q427 686 347 616L323 656Q373 699 413 729Q535 818 595 904Q638 966 638 1013Q638 1092 582 1146T435 1201Q285 1201 171 1008Z" />
<glyph unicode="4" glyph-name="four" horiz-adv-x="960" d="M671 1304H717Q716 1273 716 1267L719 1120L713 988L717 841V725L719 567Q719 530 717 455L738 454H809L877 453L933 455Q935 424 935 409Q935 394 933 363Q871 360 866 360L816 361H776Q760 361 717
363Q715 221 717 -14Q711 -20 704 -22L642 -24Q622 -24 581 -22Q584 96 584 147Q584 192 582 229Q579 297 579 307Q579 325 581 363Q539 358 516 358Q504 358 489 359Q388 364 375 364Q362 364 311 357L208 363L152 360L114 366L66 356L57 363Q55 385 55 396Q55
407 57 429Q85 466 160 579L355 862Q427 969 476 1032T573 1167T671 1304ZM581 455L582 619L581 749V1084Q499 976 353 757Q186 507 155 455Q199 457 221 457L495 453Q525 453 581 455Z" />
<glyph unicode="5" glyph-name="five" horiz-adv-x="960" d="M758 1154Q646 1145 577 1145Q526 1145 469 1148Q438 1150 432 1150Q310 1150 301 1145Q297 1143 296 1136Q293 1120 270 779Q315 802 357 811T468 821Q517 821 536 815Q631 784 673 759Q731 723 767
677T835 542Q857 478 857 408Q857 332 836 267T782 157T687 66T539 -7T424 -33L279 -20Q219 -10 174 12T114 56Q105 69 105 90Q105 106 127 125T183 144Q198 144 216 135L295 84Q322 60 362 39Q368 36 392 32Q450 24 455 24Q477 24 530 42T628 103T705 213T738
361Q738 506 647 600T428 694Q371 694 323 675T257 633L242 627Q230 622 225 622L212 625Q209 643 209 652Q209 660 212 680Q219 729 219 781T230 876L227 924Q234 961 235 995Q238 1225 254 1259Q261 1275 278 1275Q285 1275 301 1273L307 1272L434 1273Q520 1268
561 1268Q655 1268 712 1281Q740 1307 755 1307Q761 1307 777 1305L780 1293L772 1251L767 1184Q766 1177 758 1154Z" />
<glyph unicode="6" glyph-name="six" horiz-adv-x="960" d="M787 1310Q796 1295 800 1277Q794 1266 781 1262Q739 1251 657 1204Q638 1194 541 1111Q498 1081 437 999Q354 889 318 803T254 576Q246 536 243 435L240 398Q240 270 315 143T504 15Q563 15 614 51T696
173T726 381Q726 547 663 626T510 706Q483 706 462 698L454 696Q441 696 427 725Q453 742 490 753T538 764Q545 764 629 749L658 735Q706 720 731 700Q777 663 813 607Q831 578 861 489Q863 483 875 401L870 301Q849 211 830 175Q802 120 736 55Q702 22 648 1Q572
-28 487 -28Q325 -28 213 101T100 477Q100 614 142 736T261 961Q313 1030 402 1109T572 1232Q681 1290 787 1310Z" />
<glyph unicode="7" glyph-name="seven" horiz-adv-x="960" d="M109 1264Q232 1269 441 1269Q536 1269 658 1266Q732 1263 755 1263L852 1264H875Q883 1256 883 1249Q883 1237 860 1191Q849 1171 763 972Q721 874 660 715L534 360Q489 238 476 190L453 97Q439 56
439 37Q439 22 456 -10Q444 -26 402 -26Q383 -26 366 -10Q372 49 404 146Q416 181 445 284T502 466L616 776Q665 908 711 1019Q727 1056 735 1071Q756 1108 756 1132L743 1131H732L600 1135Q594 1135 558 1133T504 1131L349 1132H302L236 1134Q178 1135 164 1121T147
1046Q146 1031 139 1017Q128 1014 123 1014Q112 1014 94 1022Q95 1047 95 1059L97 1089L94 1144Q94 1216 98 1241Q100 1251 109 1264Z" />
<glyph unicode="8" glyph-name="eight" horiz-adv-x="960" d="M386 639Q289 691 254 722Q204 765 171 833T137 972Q137 1096 235 1196T477 1297Q638 1297 732 1212T826 1005Q826 937 798 881T715 780Q678 749 588 703Q725 630 751 609Q805 567 842 498T879 345Q879
188 771 80T494 -28Q321 -28 219 66T116 300Q116 379 143 443T227 554Q271 589 386 639ZM543 726Q627 772 660 821Q714 902 714 1005Q714 1085 682 1142T597 1225T481 1250Q382 1250 318 1182T254 1015Q254 957 271 919T325 847Q349 825 437 768Q450 760 500 743Q515
738 543 726ZM435 617Q363 579 334 550Q290 508 265 450T240 290Q240 183 287 122Q365 21 491 21Q606 21 679 94T753 282Q753 407 679 480T435 617Z" />
<glyph unicode="9" glyph-name="nine" horiz-adv-x="960" d="M715 1211Q789 1131 821 1053Q864 943 864 798Q864 634 816 506T700 285T556 131T371 20T187 -30H179Q167 -21 167 -8Q167 7 172 12T198 18Q235 21 323 64Q443 124 506 196Q613 318 665 472T718 817Q718
976 682 1075T580 1218T453 1262Q373 1262 317 1186Q240 1080 240 880Q240 722 312 631Q363 567 452 567Q484 567 498 573L506 576Q516 576 524 566Q536 551 536 535L525 526Q503 516 475 511T411 506Q288 506 189 618T90 900Q90 1074 201 1190T468 1307Q535 1307
586 1288T715 1211Z" />
<glyph unicode=":" glyph-name="colon" horiz-adv-x="448" d="M117 692Q117 730 148 762T221 794Q265 794 298 761T331 685Q331 636 293 596Q268 568 219 568Q175 568 146 600T117 692ZM122 83Q122 127 154 160T230 193Q271 193 300 162T330 84Q330 37 300 5T226
-27Q176 -27 149 10T122 83Z" />
<glyph unicode=";" glyph-name="semicolon" horiz-adv-x="448" d="M235 802Q280 802 310 772T341 699Q341 657 311 627T238 597Q195 597 165 627T134 701Q134 742 163 772T235 802ZM87 -282Q203 -214 245 -163T287 -54Q287 -31 273 -15Q258 1 242 1L180 -1Q155
-1 135 21T115 79Q115 119 145 145Q187 182 235 182Q303 182 345 138T387 3Q387 -79 354 -137T251 -248Q211 -279 114 -321L87 -282Z" />
<glyph unicode="&lt;" glyph-name="less" horiz-adv-x="1365" d="M1218 144L147 599V678L1218 1130V1035L263 638L1218 240V144Z" />
<glyph unicode="=" glyph-name="equal" horiz-adv-x="1365" d="M147 913H1219V825H147V913ZM147 450H1219V361H147V450Z" />
<glyph unicode="&gt;" glyph-name="greater" horiz-adv-x="1365" d="M147 1130L1218 675V596L147 144V240L1102 636L147 1034V1130Z" />
<glyph unicode="?" glyph-name="question" horiz-adv-x="747" d="M247 314H205Q202 325 200 344Q200 355 197 374Q193 399 178 544L172 606L170 620Q170 627 175 640Q202 658 258 661Q410 669 461 687Q534 712 568 763T603 884Q603 1004 518 1096T346 1188Q318
1188 239 1170Q184 1158 168 1158Q131 1158 110 1177T89 1227Q89 1264 113 1283Q150 1311 218 1311Q282 1311 362 1280T535 1154Q602 1087 639 994T677 816Q677 746 647 684T582 590T493 539Q468 530 360 516Q310 509 290 495T259 457Q256 449 252 389T247 314ZM131
69Q131 117 158 144Q194 179 236 179Q273 179 303 147T333 69Q333 24 305 -3T227 -30Q192 -30 162 0T131 69Z" />
<glyph unicode="@" glyph-name="at" horiz-adv-x="1877" d="M1408 958L1291 559Q1225 331 1212 273T1198 178Q1198 147 1219 125T1272 103Q1346 103 1448 176T1624 413T1697 755Q1697 926 1615 1071T1382 1293T1049 1371Q818 1371 620 1249T307 896T191 418Q191
188 292 0T578 -284T974 -381Q1237 -381 1449 -240T1778 172H1836Q1746 -102 1509 -272T969 -442Q731 -442 527 -330T210 -11T97 444Q97 708 221 936T568 1293T1043 1422Q1250 1422 1416 1337T1670 1087T1757 737Q1757 554 1676 375T1468 113T1205 31Q1129 31 1091
67T1052 167Q1052 224 1070 315Q932 149 842 90T676 30Q605 30 550 93T495 262Q495 408 589 588T841 881Q955 964 1046 964Q1113 964 1157 930T1218 826L1251 936L1408 958ZM1058 917Q981 917 903 836Q791 720 712 525Q653 381 653 292Q653 230 688 191T768 151Q826
151 889 194T1023 329T1124 509Q1182 671 1182 774Q1182 839 1146 878T1058 917Z" />
<glyph unicode="A" glyph-name="A" horiz-adv-x="1387" d="M-11 32Q3 40 14 40H37Q44 40 61 41Q138 48 152 55Q187 74 212 121Q264 223 329 410Q360 499 368 518Q393 578 416 644L510 907Q532 969 616 1191Q637 1247 667 1341L696 1343L731 1342Q774 1257 807
1159Q825 1107 866 1004L1018 593L1099 370Q1163 180 1183 137T1220 79Q1225 75 1257 67T1303 55Q1349 42 1367 33Q1371 22 1371 16Q1371 11 1368 1Q1336 0 1323 0Q1272 0 1143 3L1043 6L922 4Q910 4 898 5T876 7H854Q843 8 834 13Q834 27 839 40Q851 46 861 47L966
54Q1007 56 1028 65Q1034 83 1034 92Q1034 110 1008 185Q990 235 977 280T870 576Q829 583 798 583L584 581L521 582Q487 582 446 577Q433 547 429 534L341 259Q285 102 285 86Q285 77 294 56Q315 50 350 45L486 33Q497 24 497 17Q497 12 494 2Q449 1 425 1Q345
1 239 6Q190 8 169 8Q148 8 96 6Q62 4 47 4Q23 4 -15 7V13Q-15 20 -11 32ZM466 632Q573 626 710 626Q788 626 847 631Q837 670 824 704Q759 878 752 896L661 1127L651 1145Q645 1133 607 1042Q543 886 515 799Q502 760 488 722T471 668T460 636L466 632Z" />
<glyph unicode="B" glyph-name="B" horiz-adv-x="1259" d="M27 1239V1270Q44 1274 54 1275L148 1280Q265 1290 410 1296Q468 1298 593 1298Q763 1298 842 1273Q957 1236 1013 1162T1070 996Q1070 848 859 747L854 739Q962 710 1031 658T1137 531Q1164 476 1164
387Q1164 238 1029 122T655 5H506L355 0Q155 -2 121 -2Q86 -2 52 1V12Q52 24 57 29Q63 35 80 39Q205 65 221 74T244 105Q256 145 256 311Q256 326 255 349Q253 416 253 426V530Q253 794 247 991L246 1192L245 1217Q160 1229 95 1232Q53 1233 27 1239ZM424 733Q474
723 529 723Q745 723 822 818T899 1007Q899 1049 886 1092T838 1171T752 1223Q665 1252 574 1252Q489 1252 416 1233Q415 1212 415 1202Q415 1192 417 1145Q418 1115 418 1085L415 964L416 892L423 751L424 733ZM659 53Q758 60 825 95Q856 111 898 152T964 252T988
364Q988 405 972 465T916 570T798 645T626 675Q444 675 422 668Q421 645 421 634L422 597L421 522V437Q424 202 432 159T486 85T659 53Z" />
<glyph unicode="C" glyph-name="C" horiz-adv-x="1301" d="M1185 1224Q1197 1147 1197 1066Q1197 1050 1196 1023Q1182 1020 1175 1020Q1169 1020 1158 1022Q1116 1139 1021 1202T786 1265Q712 1265 661 1248Q571 1217 503 1163T388 1033T314 850T286 630Q286
416 351 277T529 78T757 18L804 19Q884 29 913 38Q986 59 1033 87T1126 168T1204 289L1216 293Q1221 293 1231 287Q1230 263 1229 256Q1187 87 1168 25Q1152 21 1128 13Q1011 -27 815 -27Q657 -27 579 -6T408 61T245 182T132 371T89 621Q89 749 123 844T228 1038T395
1201T610 1293Q693 1311 845 1311Q956 1311 1054 1282T1185 1224Z" />
<glyph unicode="D" glyph-name="D" horiz-adv-x="1579" d="M24 20Q61 36 110 41Q181 49 216 75Q243 130 243 355V513L245 608L243 678L245 807L242 1132Q242 1187 226 1204Q203 1229 104 1250Q63 1259 54 1266T43 1295Q66 1300 75 1300H146L183 1301Q220 1301
265 1293Q357 1287 454 1287Q482 1287 534 1290Q672 1298 732 1298Q853 1298 960 1274T1182 1185Q1253 1144 1327 1056T1440 863T1479 627Q1479 510 1437 395T1318 196T1164 69T926 -5Q860 -17 689 -17Q576 -17 505 -10Q477 -6 445 -6Q440 -6 434 -7L26 -14L24
-6Q22 -1 22 5L24 20ZM533 59Q609 33 687 33Q788 33 885 64T1056 153T1179 283T1247 414Q1275 499 1275 635Q1275 765 1220 899Q1182 992 1087 1077T861 1201T580 1241Q476 1241 426 1218Q420 1212 414 1204Q408 1179 408 1158Q408 1145 409 1127Q412 1011 412
941L411 714Q411 214 429 158T533 59Z" />
<glyph unicode="E" glyph-name="E" horiz-adv-x="1344" d="M50 16Q60 25 67 27Q84 32 125 35Q222 41 245 53Q259 73 259 109L258 179L259 433L257 553L258 804L253 1089Q252 1191 240 1204Q222 1223 133 1226Q95 1227 66 1232Q53 1239 53 1250Q53 1258 58 1269Q67
1274 74 1274Q88 1274 108 1273Q167 1268 230 1268L304 1270L480 1266Q612 1266 686 1269T786 1272Q809 1272 900 1268L1042 1269L1059 1266L1142 1269L1152 1264Q1157 1256 1159 1247Q1159 1233 1155 1204T1150 1168Q1150 1064 1157 992Q1156 986 1151 984Q1140
984 1131 987Q1120 1006 1102 1054T1046 1165Q1021 1207 1007 1215T949 1223Q940 1223 858 1225Q836 1226 815 1226L530 1220H505Q450 1220 439 1206Q422 1182 422 1065Q422 1053 427 825V686Q438 683 451 683H468Q485 683 518 682Q570 680 588 680Q600 680 609
681Q717 685 887 685Q940 694 949 706Q964 724 971 800T1005 886Q1018 886 1029 881Q1031 873 1031 866Q1031 859 1029 843Q1024 806 1024 611Q1024 559 1029 495T1035 426Q1035 417 1032 402Q1024 398 1019 398H1012Q996 426 981 485Q955 586 927 611T834 637Q820
637 783 636T673 634H608Q469 634 426 628L425 595L426 411L425 295L426 182Q427 80 439 64Q456 42 513 42L574 43Q582 43 636 42T771 40Q964 40 1028 56T1133 115T1238 296Q1257 337 1276 337Q1285 337 1296 329Q1267 230 1263 199Q1252 129 1250 56Q1250 23 1234
1H1212L931 -2L805 -1L505 -5H383Q360 -5 340 -6Q160 -14 75 -14Q60 -14 55 -9T49 6L50 16Z" />
<glyph unicode="F" glyph-name="F" horiz-adv-x="1152" d="M59 -15L60 10Q82 21 133 29T204 46T237 69Q246 113 246 228L232 1006L235 1135Q235 1175 221 1190T145 1217T73 1238T62 1255Q62 1260 65 1268Q78 1276 92 1276Q107 1276 153 1274H181Q195 1274 260
1276H399L686 1281L990 1293H1017L1060 1294Q1078 1294 1092 1284Q1098 1268 1099 1261L1098 1221L1107 1042Q1107 1031 1105 1014Q1089 1007 1076 1007Q1067 1007 1062 1013Q1054 1024 1052 1055Q1048 1098 1021 1166Q1008 1198 978 1210Q918 1233 776 1233Q709
1233 651 1230T580 1226L502 1227Q454 1227 423 1213Q402 1204 402 1170V1155Q405 1104 405 1042L402 770Q402 730 408 694L437 692L493 695H684Q799 695 844 711Q874 722 889 744Q894 751 914 823L927 906Q939 912 945 912Q950 912 961 907Q965 884 966 837L978
469Q961 462 952 462L941 464Q925 564 891 621Q879 641 864 644Q838 650 626 650Q560 650 535 649Q475 646 463 646H453Q423 646 410 638Q406 626 406 621V552Q406 540 407 452L405 121Q405 107 413 86Q434 69 489 64T594 37Q622 24 622 8Q622 1 618 -5T604 -14Q522
3 377 3Q300 3 214 -11Q155 -20 79 -20L59 -15Z" />
<glyph unicode="G" glyph-name="G" horiz-adv-x="1579" d="M1335 1214L1346 1062Q1352 993 1352 968L1324 963Q1257 1115 1158 1191T914 1267Q738 1267 640 1224Q498 1163 397 1012T296 648Q296 525 333 427T437 245T597 98Q657 57 740 36Q787 25 880 25Q940 25
1013 42T1123 87T1173 152T1187 292Q1187 465 1164 493T1019 531L979 534L952 533Q946 534 936 536L921 561Q921 566 928 574Q980 582 1154 582Q1193 582 1281 580L1384 576L1477 577Q1504 577 1542 575Q1549 574 1551 572T1553 563Q1553 552 1548 535Q1506 526
1483 526L1418 527Q1385 527 1365 504Q1355 493 1355 429L1356 298Q1356 163 1345 126Q1339 104 1320 87T1240 45Q1153 10 1082 -2Q950 -25 827 -25Q629 -25 503 25T285 166T154 348Q95 483 95 623Q95 798 187 965T486 1238Q631 1312 880 1312Q1052 1312 1161 1282T1335
1214Z" />
<glyph unicode="H" glyph-name="H" horiz-adv-x="1557" d="M39 -15L40 7Q74 26 119 31Q190 40 209 49T236 76Q250 109 250 143L248 219L249 289L247 371Q247 422 250 498T253 580V853Q253 918 256 993T259 1098Q259 1184 255 1198T240 1218T168 1229Q121 1233
103 1236Q98 1247 98 1254Q98 1262 99 1273Q123 1275 136 1275L230 1274Q330 1274 442 1282Q497 1286 608 1289Q610 1280 610 1272Q610 1262 606 1257T590 1249Q459 1238 436 1217T412 1107Q412 945 417 773L421 679Q426 675 551 669Q585 667 591 667L738 669L835
666L1089 674Q1136 675 1146 678Q1152 852 1152 1015Q1152 1172 1145 1200Q1141 1217 1131 1223Q1125 1226 1027 1239Q1010 1241 995 1244Q990 1259 990 1278Q1024 1283 1033 1283L1099 1279Q1190 1274 1282 1274Q1341 1274 1478 1284Q1477 1264 1473 1248Q1435
1233 1382 1229Q1348 1227 1325 1218Q1306 1204 1306 1161Q1306 1151 1307 1139Q1308 1103 1308 1092V977L1309 905L1307 812L1308 638L1306 474Q1306 425 1309 321L1308 186Q1308 118 1320 89Q1326 75 1340 69L1421 51Q1481 36 1492 27T1504 4L1501 -8L1496 -9Q1491
-9 1483 -7Q1374 13 1254 13Q1160 13 1121 10T956 -12Q954 1 954 7Q954 14 956 26Q987 44 1054 51Q1104 56 1133 83Q1152 101 1152 136L1151 280Q1154 345 1154 351Q1154 436 1151 599Q1148 613 1140 616Q1113 625 874 612Q826 609 802 609Q778 609 702 611T560
614Q525 614 501 613Q455 612 450 612Q427 612 419 603T410 570L411 500Q411 483 406 311Q405 276 405 253Q405 116 415 71Q420 50 433 42Q442 36 511 21Q557 11 581 2L587 -8Q587 -13 583 -16Q577 -21 566 -21Q558 -21 547 -21T504 -19Q453 -18 377 -12Q328 -8
290 -8Q226 -8 85 -14Q58 -15 39 -15Z" />
<glyph unicode="I" glyph-name="I" horiz-adv-x="725" d="M43 32Q65 41 88 43Q241 53 263 79T285 336L284 441V551L280 672L282 743L281 821V913L279 954L281 1006Q282 1024 282 1048Q282 1111 276 1181Q272 1195 265 1208Q228 1227 146 1233T52 1248Q44 1254
43 1279H127L392 1273Q494 1273 664 1279Q664 1263 662 1249Q642 1244 595 1238Q500 1227 479 1217Q466 1212 460 1200Q450 1182 448 1133L443 1004L447 559V383Q445 300 445 270Q445 158 450 127T469 83T514 61Q560 50 586 49Q642 47 657 33Q660 20 660 11V3Q569
0 526 0Q501 0 437 3L299 1L64 2H45L43 32Z" />
<glyph unicode="J" glyph-name="J" horiz-adv-x="683" d="M-137 -364Q-118 -351 -103 -351Q-57 -351 2 -404Q12 -413 17 -417L22 -422Q46 -442 72 -442Q110 -442 148 -416T209 -344Q240 -280 254 -200T269 -6L268 150L270 257Q270 366 262 593L256 967L257 1160Q258
1186 248 1205Q242 1215 227 1223T182 1232L108 1237Q73 1237 60 1244Q56 1259 56 1267L57 1279Q79 1279 111 1277Q173 1274 232 1274Q260 1274 306 1275Q341 1277 355 1277H502Q533 1277 569 1274Q569 1251 567 1238Q481 1234 458 1226T424 1204Q417 1195 417
1169L413 1065L414 1040Q416 1022 416 971V931Q416 896 417 869Q419 829 419 821Q419 812 417 774Q416 763 416 755L428 477L426 298V182Q426 82 388 -97Q360 -227 287 -333T143 -479T-46 -518Q-109 -518 -147 -488Q-173 -467 -173 -432Q-173 -390 -137 -364Z"
/>
<glyph unicode="K" glyph-name="K" horiz-adv-x="1515" d="M444 641Q456 652 484 669Q540 703 677 805L951 1029Q1064 1123 1110 1177Q1119 1189 1124 1202Q1106 1215 1083 1221T1010 1230T951 1239T941 1256Q941 1267 948 1273Q961 1282 985 1282Q1023 1282 1051
1277T1178 1271Q1202 1271 1213 1272L1369 1280Q1393 1282 1406 1282Q1418 1282 1442 1280Q1442 1256 1438 1241Q1330 1228 1279 1208Q1250 1196 1161 1142Q1094 1101 1039 1054L781 837L625 711Q629 704 637 697Q643 692 667 669Q772 571 950 429T1230 190Q1378
48 1509 33Q1541 29 1555 15L1556 4L1554 -10Q1520 -12 1508 -12Q1462 -12 1369 -5Q1314 -1 1278 -1Q1134 -1 949 -13Q946 1 946 8L947 16Q960 28 999 38Q1053 52 1113 54Q1126 54 1141 56Q1131 72 1108 93Q1104 97 1081 119T1000 193L881 288L698 442Q607 520
444 641ZM58 13Q63 23 73 24Q174 33 232 60Q252 78 252 120L251 218V404L253 485L247 763L249 950Q249 1108 243 1161Q241 1181 230 1202Q212 1213 200 1215Q157 1222 89 1226Q75 1236 75 1250Q75 1255 79 1265Q135 1268 277 1268Q343 1268 381 1269Q435 1272 511
1278Q544 1275 589 1275Q600 1269 600 1261Q600 1255 598 1248Q586 1242 553 1238Q466 1229 435 1200Q414 1180 414 1124L415 1105L413 729L410 470L417 213Q418 91 423 79T439 59Q474 38 546 31Q564 29 581 24Q587 11 587 2Q587 -8 575 -17L543 -18Q523 -18 447
-11T334 -4Q303 -4 248 -11T98 -18Q84 -18 60 -17L58 13Z" />
<glyph unicode="L" glyph-name="L" horiz-adv-x="1173" d="M11 -6Q12 9 19 21Q97 42 171 49Q220 53 234 71Q244 84 246 167L253 431L252 610L253 844V906Q254 1117 251 1169Q250 1179 243 1197Q217 1209 200 1213T43 1242Q42 1253 42 1258Q42 1264 43 1274Q62
1274 105 1272L257 1267L345 1265L371 1266Q376 1266 400 1264Q459 1264 468 1265L548 1271Q629 1271 662 1268Q661 1250 655 1229Q644 1227 551 1224T444 1212Q421 1199 421 1132Q421 1116 419 1067V1007L420 822V759L422 428L419 146L420 84Q420 54 430 47Q455
46 577 45H645L818 51Q886 53 915 64T1012 132Q1053 168 1076 206Q1081 214 1093 230Q1112 256 1144 334H1177Q1171 298 1164 266Q1135 125 1124 31Q1122 11 1120 -6L746 5Q264 5 174 -4Q146 -6 115 -6H11Z" />
<glyph unicode="M" glyph-name="M" horiz-adv-x="1707" d="M14 23Q45 44 126 53Q189 56 201 64Q209 70 213 79Q228 116 235 280Q244 493 264 847Q280 1117 280 1184V1210Q208 1225 52 1242Q42 1257 42 1265Q42 1270 49 1283Q66 1289 75 1289Q83 1289 110 1285Q159
1278 245 1278Q273 1278 341 1282Q389 1285 395 1285Q411 1285 432 1280Q442 1270 447 1261L489 1167L772 541L889 278Q1028 553 1105 767Q1110 783 1117 796Q1126 813 1134 834T1199 994Q1222 1050 1236 1090Q1293 1250 1303 1273Q1322 1280 1336 1280Q1352 1280
1377 1278Q1433 1275 1559 1275Q1637 1275 1687 1277Q1689 1266 1689 1261Q1689 1254 1686 1242Q1654 1225 1609 1223Q1520 1218 1496 1209T1466 1186T1454 1094L1455 1048L1454 1000Q1454 850 1462 496L1461 300L1462 174Q1462 100 1469 87T1509 61Q1563 43 1685
24Q1692 19 1692 11Q1692 2 1691 -9H1645Q1586 -9 1517 -6T1443 -2Q1238 -2 1171 -6Q1130 -9 1119 -9Q1112 -9 1104 -5V8Q1104 17 1107 27Q1140 41 1197 46Q1260 63 1289 82Q1298 120 1298 237L1295 439Q1295 472 1298 562T1302 855Q1302 1016 1294 1099Q1277 1064
1227 947L1212 909L1210 903L1062 553L1009 418L940 254Q895 141 863 54Q849 14 840 -9L817 -8Q704 322 548 669T328 1127Q320 1084 310 877Q297 625 297 322Q297 227 311 108Q315 74 340 58T469 39Q509 39 545 33Q552 18 552 11Q552 6 547 -6L236 5Q202 5 130
0Q90 -3 15 -4L14 23Z" />
<glyph unicode="N" glyph-name="N" horiz-adv-x="1579" d="M27 1223L26 1271Q181 1271 253 1279Q281 1282 292 1282Q301 1282 319 1281Q361 1246 397 1201Q405 1192 415 1181L626 948L656 912Q720 837 772 784T977 563L1216 298Q1251 259 1306 201L1307 217Q1301
356 1301 364L1305 424L1303 518V561Q1303 602 1296 814Q1295 843 1288 923T1281 1065Q1281 1175 1268 1193Q1259 1206 1183 1220Q1165 1221 1127 1226Q1082 1228 1074 1231T1058 1248Q1060 1264 1067 1278Q1094 1286 1120 1286Q1148 1286 1189 1279T1264 1272Q1310
1272 1407 1278Q1462 1282 1483 1282H1500L1498 1251Q1482 1244 1454 1243T1402 1234Q1366 1223 1359 1215Q1335 1189 1335 1162L1346 846L1354 701L1353 659L1359 458Q1365 252 1365 100Q1365 67 1361 -43L1314 -47Q1279 -7 1073 205Q1025 254 1008 274L922 373Q872
428 857 443T835 465Q726 589 552 775Q505 825 414 931Q357 998 342 1013T301 1047L298 1013Q298 818 308 475L315 144Q316 102 320 63L355 55Q450 46 542 28Q549 22 554 19L553 -19Q537 -24 527 -24Q516 -24 500 -22Q401 -14 259 -14Q159 -14 83 -19L69 -20Q60
-20 43 -18L42 12L68 24L115 31Q178 40 207 51Q226 58 238 72Q249 141 249 274Q249 336 246 501V637L244 921Q242 1111 231 1145Q225 1163 206 1177Q168 1204 107 1211T27 1223Z" />
<glyph unicode="O" glyph-name="O" horiz-adv-x="1600" d="M94 639Q94 741 118 820T201 993T341 1148T568 1259Q670 1292 826 1292Q931 1292 1031 1264T1214 1186T1378 1032Q1435 960 1464 877Q1502 768 1502 652Q1502 520 1477 433T1391 261Q1344 195 1230 109Q1154
51 1041 16T797 -20Q664 -20 560 11T387 86T244 218T132 410T94 639ZM788 17Q872 17 962 40T1123 118T1232 242T1296 421T1320 639Q1320 775 1280 908Q1249 1009 1179 1088T1010 1211T799 1255Q708 1255 621 1225T478 1149T374 1017T301 828T276 646Q276 563 301
458T369 276T476 140T619 49T788 17Z" />
<glyph unicode="P" glyph-name="P" horiz-adv-x="1152" d="M44 1277Q62 1280 67 1280Q101 1280 179 1276Q220 1275 235 1275Q257 1275 328 1279L498 1289Q565 1295 654 1295Q811 1295 904 1251T1047 1111T1098 922Q1098 765 988 651T692 537Q640 537 605 547T525
588Q506 601 502 615Q506 622 513 625Q527 625 542 619Q576 607 628 607Q707 607 777 646T884 757T920 909Q920 987 882 1060T782 1178Q747 1203 675 1220T562 1237Q438 1237 415 1219L414 1205L418 1092L417 1072Q415 1045 415 989Q415 785 421 735V679L434 222Q434
212 432 185T429 138Q429 90 437 65Q461 58 577 32Q631 19 636 17Q644 14 650 4Q646 -11 640 -15T614 -20Q602 -20 558 -15Q472 -6 423 -6L247 -13L142 -10Q132 -10 84 -12L83 14L213 39Q245 48 252 57Q262 71 262 112Q262 121 263 151Q264 172 264 209Q264 327
254 712Q250 892 250 1078V1095Q250 1167 228 1186Q191 1219 43 1240Q38 1251 38 1258Q38 1266 44 1277Z" />
<glyph unicode="Q" glyph-name="Q" horiz-adv-x="1579" d="M476 1239Q632 1316 818 1316Q998 1316 1141 1233T1371 1014Q1477 845 1477 648Q1477 519 1422 383T1281 159T1103 28T959 -21Q923 -26 906 -35Q947 -84 1046 -162T1243 -283Q1252 -286 1276 -298Q1329
-324 1377 -344L1400 -353L1409 -354L1435 -365Q1487 -387 1531 -401Q1532 -410 1532 -415L1531 -427V-445Q1499 -446 1492 -446Q1400 -446 1279 -412T1056 -320T835 -168Q755 -103 702 -41Q527 -16 387 80T172 318T97 609Q97 784 189 961T476 1239ZM672 10Q727
0 775 0Q885 0 972 34T1112 122Q1180 193 1229 322T1278 645Q1278 798 1233 924Q1203 1011 1133 1099T988 1228T797 1270Q662 1270 544 1200T347 957Q297 847 297 651Q297 491 352 339T510 92Q569 37 672 10Z" />
<glyph unicode="R" glyph-name="R" horiz-adv-x="1280" d="M56 30Q202 47 221 54Q234 59 245 84V95Q245 120 253 276Q255 320 255 362L252 481L254 616L253 867L254 1047Q255 1161 237 1186T141 1221T56 1237T48 1253Q48 1260 51 1271Q61 1280 97 1281Q102 1281
124 1283T167 1286H249L512 1289Q735 1289 824 1256T967 1145T1020 969Q1020 785 827 688Q794 671 775 658Q809 586 870 485L997 267Q1073 147 1102 117T1172 66T1312 28Q1313 18 1313 12Q1313 6 1312 -3Q1175 -5 991 -5Q978 -5 955 -3Q884 133 788 296L640 566Q610
608 591 618T539 629L454 628L426 629Q423 597 423 498V156Q422 137 431 103Q439 84 458 73T571 38L612 28Q620 18 620 1Q593 -4 582 -4Q492 -4 455 -2Q436 -1 424 -1L288 -3L155 -2Q146 -2 64 -5L44 -1L42 9Q42 18 56 30ZM428 684Q455 683 468 683Q540 683 634
700Q700 713 741 742T809 830T837 950Q837 1018 794 1094Q761 1152 683 1191T494 1230Q467 1230 424 1227Q420 1175 420 1147L425 960L424 883Q424 805 428 684Z" />
<glyph unicode="S" glyph-name="S" horiz-adv-x="981" d="M795 1234Q803 1168 803 1158L799 1069Q797 1012 794 996Q785 992 779 992L770 994Q738 1134 662 1198T475 1262Q361 1262 288 1198T215 1049Q215 984 266 930Q317 876 527 768Q687 685 756 633T860 511T895
357Q895 250 840 156T690 15T441 -33Q306 -33 182 10Q109 36 93 52T77 86Q77 97 79 114Q93 232 94 308Q96 355 101 363Q105 370 116 370Q125 370 130 364T138 339Q149 216 252 119Q354 22 483 22Q562 22 628 55T732 150T770 272Q770 353 713 420Q656 487 484 576T260
707Q176 774 134 849Q103 907 103 984Q103 1123 213 1219T508 1316Q610 1316 684 1293Q738 1275 795 1234Z" />
<glyph unicode="T" glyph-name="T" horiz-adv-x="1259" d="M36 1130L77 1281Q81 1311 88 1319T104 1328Q122 1328 145 1285Q162 1254 173 1246T205 1234L215 1235L258 1231L494 1228L773 1229H855L1010 1232Q1020 1232 1035 1230Q1103 1224 1119 1224Q1134 1224
1143 1234Q1146 1238 1176 1302Q1189 1331 1208 1331Q1216 1331 1228 1327Q1233 1307 1233 1291L1232 1251L1233 1166Q1233 1135 1228 966Q1228 955 1224 946Q1213 939 1205 939Q1197 939 1191 946T1176 993Q1156 1083 1126 1122Q1106 1147 1069 1158T889 1169Q775
1169 720 1165Q718 1125 718 1092L726 471Q726 434 722 331L723 198L722 124Q722 89 734 74T799 45Q891 22 922 17Q941 15 953 9V-21L811 -17Q694 -16 635 -12L489 -19L382 -25Q337 -25 327 -23L313 -17Q315 6 322 12T359 23Q401 29 458 44T533 76Q543 85 547 106Q556
150 556 279V449L552 820L548 900L547 1167Q484 1174 386 1174Q242 1174 211 1156Q162 1128 65 992Q33 941 9 941L0 943Q-4 949 -4 954Q-4 966 12 1026Q32 1103 36 1130Z" />
<glyph unicode="U" glyph-name="U" horiz-adv-x="1451" d="M584 1284Q589 1267 589 1258Q589 1252 586 1240Q560 1233 544 1233Q537 1233 521 1234T494 1236Q448 1236 421 1218Q403 1207 399 1189L389 1075L392 580Q393 308 410 242T467 132T587 61T744 33Q914
33 1004 82T1134 217T1174 480Q1174 485 1171 560V589Q1171 605 1173 651T1175 706L1160 993Q1153 1138 1144 1164T1116 1203Q1077 1231 968 1253Q963 1267 962 1282Q1001 1286 1039 1286Q1079 1286 1123 1283Q1189 1278 1195 1278L1353 1283L1384 1282L1383 1246Q1260
1230 1236 1209T1212 1129Q1212 1098 1216 994L1223 787L1222 705L1225 601Q1225 405 1214 334Q1198 235 1169 177T1083 73T934 -4T749 -34Q606 -34 543 -14Q428 21 360 77T266 189Q231 263 231 405V474L228 754L231 980V1132Q231 1190 215 1213Q204 1229 183 1229L124
1228Q58 1228 40 1242Q37 1251 37 1258Q37 1267 43 1272Q54 1280 70 1280H96L163 1281H321L584 1284Z" />
<glyph unicode="V" glyph-name="V" horiz-adv-x="1387" d="M-17 1268L-10 1285Q71 1285 152 1283H185Q200 1283 218 1284Q283 1287 453 1287Q487 1287 519 1287T581 1285Q587 1282 590 1276L588 1260Q582 1250 558 1250H550Q522 1251 458 1246T374 1225Q361 1214
361 1196Q361 1157 394 1079L546 726L599 609Q676 423 751 229Q759 208 766 191L833 355Q885 479 938 619L1007 807Q1009 813 1018 847Q1115 1112 1115 1182Q1115 1197 1102 1212T1058 1238Q1046 1242 980 1250L906 1259Q897 1269 897 1276L900 1284L1224 1287H1331Q1385
1287 1405 1280L1406 1272Q1406 1264 1400 1251Q1376 1243 1356 1241Q1272 1231 1252 1218T1210 1160L947 510Q824 217 772 56L743 -31Q730 -39 721 -39Q710 -39 697 -37Q578 271 503 439L197 1133Q164 1195 148 1207T32 1243Q-3 1251 -7 1253Q-14 1258 -17 1268Z"
/>
<glyph unicode="W" glyph-name="W" horiz-adv-x="1813" d="M-19 1240L-20 1256Q-6 1274 59 1274L152 1273L206 1272L230 1273Q361 1273 388 1269Q389 1257 389 1251Q389 1242 387 1225L290 1221Q283 1220 271 1216Q267 1206 267 1201Q267 1195 273 1182Q281 1165
288 1146L351 970L501 594Q527 525 536 505Q564 442 607 329Q622 290 679 160Q682 152 691 134Q736 207 823 389Q891 529 908 582L900 602L728 992Q694 1065 675 1108Q636 1198 618 1211T512 1229L491 1234Q483 1243 483 1255Q485 1264 492 1269Q524 1270 537 1270L600
1268L632 1269H687L736 1270H788L882 1275Q891 1275 909 1274L925 1275Q939 1275 946 1269T953 1254Q953 1247 949 1238Q933 1232 892 1228Q833 1221 824 1215T814 1199Q814 1180 891 998L993 767Q1040 859 1121 1057Q1155 1139 1155 1178Q1155 1199 1138 1216Q1125
1228 1080 1232L1059 1235L1041 1243L1040 1251Q1040 1257 1045 1268Q1055 1276 1063 1277Q1078 1279 1202 1272H1270L1312 1271L1382 1272Q1390 1271 1406 1267Q1414 1259 1414 1252Q1414 1241 1406 1234T1367 1222Q1291 1209 1253 1182Q1228 1163 1208 1128L1135
966Q1109 892 1092 855Q1085 832 1066 794L1025 699Q1036 673 1062 615L1165 376Q1172 360 1206 287T1264 152L1279 200L1281 205L1342 364Q1374 437 1406 518L1483 712L1599 1042Q1617 1099 1628 1152L1631 1168Q1634 1179 1634 1184Q1634 1198 1620 1209T1521
1241Q1513 1244 1505 1250Q1502 1262 1502 1269L1503 1276Q1545 1278 1556 1278L1633 1276L1720 1277H1795L1825 1275L1826 1265Q1826 1258 1824 1244Q1752 1216 1735 1204T1708 1178T1672 1102Q1669 1096 1609 922Q1596 896 1582 853Q1578 841 1565 810L1549 770L1538
741Q1472 559 1393 360L1285 60L1242 -54Q1226 -56 1218 -56Q1211 -56 1198 -55Q1185 -18 1141 85Q1027 347 936 520L924 500Q873 403 801 243L723 85Q675 -16 645 -55L602 -56L440 340L306 654L188 952Q176 981 167 1007Q160 1026 154 1046Q144 1077 98 1187Q80
1216 40 1224T-19 1240Z" />
<glyph unicode="X" glyph-name="X" horiz-adv-x="1429" d="M10 -10L14 17Q35 24 103 32Q189 52 201 59Q219 69 250 99Q310 160 344 204Q359 223 422 292Q580 468 659 588Q505 788 367 986T192 1210Q180 1219 78 1228Q40 1231 23 1234Q17 1252 17 1263L19 1274Q90
1277 107 1277H134L201 1272L369 1263Q417 1260 502 1260Q527 1260 569 1269Q593 1273 607 1273Q619 1273 645 1269Q650 1256 650 1249L649 1242Q631 1235 573 1227T490 1210T455 1189Q450 1173 450 1164Q450 1155 455 1144Q483 1082 590 940L763 712Q822 783 889
884Q1038 1108 1046 1126T1054 1158Q1054 1177 1040 1191T989 1213Q909 1230 895 1231Q886 1234 879 1238Q871 1254 871 1263L873 1274L1069 1277H1258L1360 1275L1375 1272L1377 1252L1254 1209Q1190 1177 1174 1164Q1142 1138 1058 1037T897 825Q882 804 838
749Q813 717 788 680Q791 672 798 664L812 646L1110 246Q1205 115 1247 75Q1273 50 1308 38T1442 17Q1449 0 1449 -10L1448 -20L1414 -21Q1399 -21 1365 -17Q1301 -9 1197 -8L1097 -6L920 -13Q858 -19 850 -19Q840 -19 826 -17Q821 -5 821 1Q821 6 826 17L883 22L994
44Q1011 50 1019 70Q1013 90 1005 103Q967 169 852 328T689 546Q675 536 566 392Q424 205 410 177Q390 139 390 110Q390 73 429 54Q456 40 620 15Q622 2 622 -5Q622 -10 621 -19L590 -20Q569 -20 466 -6Q282 -1 209 -1Q148 -1 83 -8Q49 -11 42 -11Q28 -11 10 -10Z"
/>
<glyph unicode="Y" glyph-name="Y" horiz-adv-x="1344" d="M-20 1289H28Q54 1289 142 1286Q278 1280 368 1280L485 1282Q510 1282 533 1278Q540 1270 540 1261V1250L515 1238H504L448 1237L419 1238Q385 1238 364 1223Q348 1212 348 1200Q348 1187 362 1167Q367
1159 378 1143Q398 1109 431 1064Q478 998 531 908Q552 872 575 839L727 609Q742 628 768 665L912 872L1078 1121Q1100 1155 1104 1171Q1106 1179 1106 1188Q1106 1209 1087 1222Q1056 1243 953 1253Q946 1254 934 1256Q927 1268 927 1276Q927 1282 928 1289L980
1290L1168 1285L1319 1288Q1325 1288 1361 1287L1358 1252Q1351 1250 1336 1249L1312 1246Q1306 1245 1293 1244Q1272 1236 1260 1227Q1113 1072 1010 934T836 683Q813 646 799 628Q773 594 768 578Q757 539 757 460Q757 149 768 93Q774 65 784 59Q810 46 991 28V16Q991
4 984 -13L728 -2L557 -11H417Q397 -11 373 -10Q369 1 369 6Q369 11 372 20Q379 26 386 27L515 47Q582 69 590 77Q602 89 605 114Q606 132 606 392Q606 489 600 510T557 586L426 785L203 1110Q145 1195 102 1224Q83 1237 7 1244Q-1 1244 -17 1246L-20 1289Z" />
<glyph unicode="Z" glyph-name="Z" horiz-adv-x="1344" d="M74 -12L72 13Q140 86 160 115Q166 124 197 161L253 240L637 751L968 1192Q975 1203 983 1216Q947 1218 922 1218Q896 1218 857 1217T642 1212Q635 1212 578 1207T423 1196T281 1171Q257 1160 225 1127Q184
1084 159 1042Q126 986 106 973L89 971Q92 991 110 1036T160 1200Q183 1264 192 1294T211 1343Q222 1346 230 1346H243Q235 1319 235 1308Q235 1277 260 1261T392 1244Q437 1244 483 1249Q501 1251 570 1254H624L858 1260L1066 1266L1166 1271Q1185 1271 1206 1264L1207
1257Q1207 1241 1131 1148Q1091 1100 1082 1087L895 837Q853 780 830 751Q817 735 751 649L606 458L404 191Q334 101 310 65Q305 59 298 48L687 45Q774 44 826 44Q1019 44 1097 103T1205 302Q1212 333 1216 349Q1227 359 1241 359L1245 356Q1247 334 1247 316Q1247
266 1244 179L1241 111L1243 49Q1243 22 1238 -2Q1202 -5 1194 -5Q1153 -3 1125 -3L867 -7L550 0L386 -3Q378 -3 325 0Q297 2 281 2Q227 2 134 -11Q102 -15 96 -15Q88 -15 74 -12Z" />
<glyph unicode="[" glyph-name="bracketleft" horiz-adv-x="555" d="M215 1285L603 1283L605 1241L467 1243Q384 1243 356 1225L352 1220Q345 1174 345 1063L346 1022L344 925V848L340 795L341 765V669Q341 662 343 603Q345 574 345 563L344 428L346 297L342 203L347
-63Q347 -178 342 -240L341 -256L347 -381Q348 -402 354 -409T383 -422Q429 -432 507 -432L549 -431Q576 -431 601 -432L603 -475H214L208 -276L218 -56Q219 -2 219 80Q219 119 218 135L213 221L216 516L212 641Q212 732 214 769T217 825L213 931L215 1073L213
1251L215 1285Z" />
<glyph unicode="\" glyph-name="backslash" horiz-adv-x="1024" d="M113 1426H200L911 -277H823L113 1426Z" />
<glyph unicode="]" glyph-name="bracketright" horiz-adv-x="555" d="M-42 1240L-43 1282L2 1284H41L312 1285Q328 1285 349 1281L347 1171L348 1151Q351 1085 351 1011Q351 976 347 926T343 857Q343 698 351 586V503L353 368L351 318L354 93Q354 70 353 38T351
-10Q351 -25 355 -124L354 -316L357 -434Q357 -452 356 -476L-35 -477L-36 -434H-18Q-7 -434 16 -434T54 -435Q184 -435 216 -415Q224 -381 224 -270L223 -223L224 -120V-46Q224 -32 227 6V67L218 494Q218 506 220 541Q222 589 222 609Q222 656 216 858Q214 928
214 945Q214 972 220 1060L215 1162L214 1195Q212 1203 206 1220Q176 1231 153 1234Q142 1235 -42 1240Z" />
<glyph unicode="^" glyph-name="asciicircum" horiz-adv-x="1024" d="M513 1374L961 836L896 783L513 1244L129 783L66 836L513 1374Z" />
<glyph unicode="_" glyph-name="underscore" horiz-adv-x="1024" d="M-12 -154H1036V-256H-12V-154Z" />
<glyph unicode="`" glyph-name="grave" horiz-adv-x="683" d="M535 984L518 983Q503 993 319 1117Q231 1177 215 1200T199 1242Q199 1262 215 1277T252 1293Q288 1293 330 1258T461 1092Q484 1058 499 1038Q525 1004 535 984Z" />
<glyph unicode="a" glyph-name="a" horiz-adv-x="832" d="M813 136Q819 123 819 117Q819 102 795 64Q764 14 726 -9Q702 -24 660 -24Q588 -24 552 20Q530 46 521 113L409 35Q350 1 319 -8Q269 -21 199 -21Q148 -21 119 9T89 88Q89 157 173 253T403 410Q505 453
528 465Q530 498 530 537Q530 664 495 709T393 754Q324 754 264 700Q227 666 208 572Q202 546 185 516Q142 488 116 488Q94 488 76 501Q66 508 66 517Q66 543 121 634T261 771T409 817Q495 817 537 802T611 747T650 662Q654 640 654 505L651 346L652 230Q652 207
651 191Q650 162 650 148Q650 115 669 95Q688 75 714 75Q752 75 779 113L791 129Q796 132 813 136ZM519 165Q526 292 526 344Q526 371 523 417Q456 393 381 344T262 231Q230 185 230 144Q230 105 256 79T323 53Q354 53 398 75Q456 104 519 165Z" />
<glyph unicode="b" glyph-name="b" horiz-adv-x="1045" d="M34 1257V1262Q34 1272 42 1290Q151 1309 274 1348Q281 1349 296 1349Q301 1333 301 1328V1030L300 935L301 829L299 743Q299 738 301 709L383 740Q396 744 469 766Q562 781 577 781Q677 781 757 749Q806
729 854 683T925 584Q965 489 965 420Q965 311 951 269Q917 169 868 111T731 12T544 -29Q453 -29 372 5T281 39Q250 39 202 -43L173 -42Q169 25 169 123L171 272L170 348L172 566L170 608L174 711V799L175 835Q175 846 174 922V982Q177 1156 159 1183Q130 1226
34 1257ZM509 26Q661 26 740 111T820 366Q820 521 730 617T508 713Q412 713 347 682Q308 663 304 647T299 433Q299 198 309 158Q326 96 371 69Q442 26 509 26Z" />
<glyph unicode="c" glyph-name="c" horiz-adv-x="853" d="M799 183L800 118Q722 35 646 2T467 -31Q355 -31 265 27T127 193T78 403Q78 516 136 616T291 766T534 816Q674 816 747 768Q788 740 788 696Q788 664 767 643T713 622Q663 622 603 684Q566 722 536 736T469
751Q380 751 321 678Q239 574 239 417Q239 255 323 159T519 63Q597 63 657 88T799 183Z" />
<glyph unicode="d" glyph-name="d" horiz-adv-x="1024" d="M730 726L731 755L730 872L731 1093Q731 1185 711 1210T594 1261Q587 1263 572 1267V1278Q572 1288 574 1300Q710 1314 808 1347L859 1348Q863 1280 863 1196L859 811L866 377L863 146Q863 75 873 66Q893
46 961 45Q975 45 999 43V25Q999 18 998 10Q967 3 934 -3L789 -31Q757 -37 738 -37V59Q721 54 685 39Q529 -27 398 -27Q319 -27 237 24T111 168T67 356Q67 442 96 520T172 651Q202 685 257 718T348 761Q437 784 467 784Q602 784 689 744Q716 731 730 726ZM731 108Q735
175 735 384Q735 561 719 607T636 695T488 737Q373 737 293 648T213 385Q213 232 299 141T515 50Q589 50 650 70T731 108Z" />
<glyph unicode="e" glyph-name="e" horiz-adv-x="853" d="M792 528L391 525H315Q269 525 221 521Q212 491 212 480L213 470V460L212 411Q212 350 250 262T360 127T539 77Q596 80 630 91T726 142L798 201L804 161Q804 154 803 146Q758 89 689 46T549 -17Q515 -26
437 -26Q366 -26 297 3Q195 47 137 144T78 381Q78 425 94 494T154 641Q183 694 225 728Q285 776 330 795Q395 822 481 822Q574 822 633 788Q713 743 752 672T792 542V528ZM234 564H281Q332 564 585 580Q625 582 634 588Q652 607 652 622Q652 653 632 692T571 753T474
775Q358 775 288 688Q234 622 234 564Z" />
<glyph unicode="f" glyph-name="f" horiz-adv-x="661" d="M368 779Q617 773 633 773Q635 751 635 740Q635 727 632 701Q607 697 581 697H543Q419 697 371 688Q369 665 369 653Q369 648 370 638Q375 481 375 448L373 191Q373 134 392 96Q403 74 433 61Q452 52 525
43Q580 35 599 32Q599 11 596 0L582 -1Q534 2 457 4L383 7L131 -1H98L97 30Q112 33 119 35Q205 51 230 71Q240 79 244 100Q246 112 246 212Q246 497 241 667Q215 675 161 677Q141 677 98 681L96 692Q96 704 106 712Q110 716 190 754Q221 768 234 789Q241 800 242
835Q243 851 248 890Q260 993 267 1017Q285 1084 327 1150T430 1267Q474 1303 529 1321T656 1339Q751 1339 795 1308Q825 1287 825 1254Q825 1226 804 1206T752 1186Q714 1186 670 1205Q587 1238 576 1241Q557 1246 537 1246Q482 1246 437 1211T379 1125T367 896Q367
832 368 779Z" />
<glyph unicode="g" glyph-name="g" horiz-adv-x="917" d="M270 -66Q258 -60 193 -33Q117 16 97 40T77 93Q77 119 92 135Q114 158 179 179T286 220Q273 229 245 246Q96 338 96 501Q96 635 190 727T433 820Q500 820 556 801Q588 791 651 751Q691 726 698 723Q714
718 734 718Q751 718 816 726T894 735Q917 735 932 726Q944 706 944 659Q944 643 936 635T911 627Q883 627 819 644T740 662Q735 662 721 660Q764 574 764 503Q764 432 719 356T595 240T435 200Q429 200 401 201Q309 201 232 155Q195 132 195 112Q195 91 231 71Q326
20 591 12Q706 8 770 -21T866 -106T899 -223Q899 -304 844 -373T677 -485T420 -528Q260 -528 173 -489T50 -404T13 -313Q13 -274 53 -216T219 -93Q256 -74 270 -66ZM230 505Q230 415 257 355T331 265T426 235Q513 235 570 301T628 504Q628 641 568 712T423 784Q328
784 279 716T230 505ZM197 -421Q288 -491 427 -491Q526 -491 624 -460T768 -370T814 -259Q814 -227 798 -196T755 -144T682 -111Q650 -102 591 -98Q423 -85 385 -85Q278 -85 194 -157Q129 -213 129 -291Q129 -363 197 -421Z" />
<glyph unicode="h" glyph-name="h" horiz-adv-x="1045" d="M38 24Q155 45 173 56Q184 63 184 88L183 154L184 271L182 569L183 680V759L186 856Q186 1084 182 1128T164 1184Q140 1207 32 1232V1237Q32 1244 34 1257Q48 1259 61 1262T86 1266Q205 1300 259 1332H308Q310
1304 310 1155L309 1028L310 864L306 662Q306 644 308 622Q371 695 400 719Q452 761 511 785T635 810Q758 810 836 706Q881 645 881 533L878 431L879 374L875 275Q871 152 871 129Q871 103 873 59L930 46Q987 34 1018 24L1017 -7L804 -1Q786 -1 706 -5Q657 -7 649
-7H627Q622 2 622 8V17Q636 35 674 41L734 55Q746 65 748 76Q752 102 757 334L759 408Q763 525 741 602Q727 655 678 686T563 718Q509 718 461 695Q428 678 382 636T318 564Q306 544 306 498L307 428L305 355Q305 346 308 230L307 166L309 96Q310 81 312 74L453
40Q464 37 486 28L489 17Q489 12 484 1Q455 0 440 0L362 1L190 -1L61 -5Q51 -4 31 -3L30 4Q30 12 38 24Z" />
<glyph unicode="i" glyph-name="i" horiz-adv-x="469" d="M142 1229Q142 1262 167 1286T229 1310Q266 1310 294 1283T322 1225Q322 1194 294 1167T229 1139Q192 1139 167 1164T142 1229ZM58 711L59 740Q124 759 129 762Q165 778 204 811T271 885Q283 887 290 887L302
886Q306 838 306 816Q306 811 304 771V718L305 430L302 125Q301 88 314 74T391 41Q431 30 451 22Q454 15 454 10Q454 4 449 -5Q410 -4 349 0Q266 7 239 7Q226 7 79 2Q49 1 21 -3Q16 -3 5 0Q0 7 0 12Q0 26 19 34Q23 36 121 57Q153 63 163 77Q180 98 180 144Q182
221 182 566Q182 635 176 652Q171 664 150 679T58 711Z" />
<glyph unicode="j" glyph-name="j" horiz-adv-x="469" d="M128 1210Q128 1248 153 1273T215 1299Q252 1299 277 1274T303 1209Q303 1168 275 1137Q255 1115 216 1115Q179 1115 154 1141T128 1210ZM42 -516L118 -423Q145 -380 160 -333T182 -217Q191 -102 191 -15Q191
10 189 55L190 211Q191 504 186 589Q183 642 170 655Q151 673 83 679Q76 680 63 681L65 719Q196 752 255 830Q268 846 284 862L291 863Q296 863 305 859L308 495Q315 114 315 81Q315 -111 296 -197T222 -370Q184 -430 113 -494L72 -531L58 -539Q49 -531 42 -516Z"
/>
<glyph unicode="k" glyph-name="k" horiz-adv-x="960" d="M54 0L52 29Q60 35 67 36T117 41T172 60T183 197L185 592L183 662Q183 671 185 729Q187 756 187 794L183 968L184 1120Q184 1175 169 1190T59 1219V1231Q59 1237 60 1248Q117 1260 161 1278Q184 1288 278
1340H309Q308 1317 308 1312V1225L307 1182L310 1103L309 984L310 786L307 540V464Q307 450 308 425L319 424Q353 424 388 449Q545 561 585 601T625 660Q625 671 612 688Q582 704 545 710Q534 712 521 715Q503 720 491 722L489 732Q489 739 494 752Q652 758 769
758Q835 758 910 755V742Q910 735 905 724Q890 721 858 715Q796 705 764 687Q687 646 605 572Q556 528 520 498L484 467Q488 460 497 450Q501 446 513 432T556 385Q664 271 716 209Q733 189 754 165Q832 78 845 68Q873 50 928 40Q954 35 973 31Q977 19 977 12L976
2Q905 8 874 8H856L578 0Q562 -2 556 -2Q546 -2 535 2Q532 10 532 16V23Q538 32 543 34Q642 42 658 47Q667 49 675 58Q675 75 646 113T501 280Q427 362 406 375T346 389H308Q304 353 304 224Q304 104 324 70Q335 51 376 46T429 31Q437 25 439 3Q379 4 338 4Q272
4 194 1Q147 -1 120 -1Q100 -1 54 0Z" />
<glyph unicode="l" glyph-name="l" horiz-adv-x="469" d="M52 1239V1261Q80 1270 114 1280Q164 1296 262 1329H309Q310 1281 310 1274Q310 453 305 295Q302 202 302 196Q302 84 311 71Q323 53 384 46T457 32Q465 28 465 18Q465 7 461 3T444 -2Q437 -2 339 1L208
5L40 -2Q24 -3 16 4Q10 9 10 18Q10 28 16 32T88 48T163 66T176 100Q180 136 180 303L179 533L182 771L181 1009L184 1126Q184 1161 173 1176T126 1207Q72 1229 52 1239Z" />
<glyph unicode="m" glyph-name="m" horiz-adv-x="1579" d="M40 35Q56 46 84 50Q124 55 146 66Q164 81 170 109Q177 145 177 362Q177 575 164 637Q142 651 107 659Q96 661 61 670V703Q120 720 156 747T258 855H264Q270 855 283 856Q291 855 296 851L295 737Q295
702 297 662Q404 759 489 798Q547 824 620 824Q707 824 758 791T855 672Q944 760 1016 795T1163 830Q1275 830 1347 757Q1418 683 1420 540V457L1421 366L1420 132Q1419 91 1438 70Q1446 67 1499 52Q1532 43 1538 38T1544 24Q1544 13 1538 -2H1531L1430 4Q1412
5 1373 5Q1325 5 1239 1H1188Q1177 1 1145 0Q1144 9 1144 16Q1144 24 1151 36Q1178 48 1225 55T1283 82T1295 238Q1295 533 1288 580Q1276 655 1225 697T1095 740Q1035 740 978 709T866 614L865 590V437L861 318Q861 136 864 111T881 75T960 54Q989 50 1005 46Q1017
36 1017 20Q1017 7 1008 2H991L941 3H650L570 2Q568 17 568 24L569 36Q591 48 651 59Q682 64 715 76Q721 81 724 89Q729 103 731 169L736 285L734 416L735 489Q735 612 685 668T559 725Q488 725 417 690T298 596Q297 568 297 545L301 209Q302 99 313 84T365 62Q429
53 448 40Q457 34 457 22Q457 14 456 3Q342 11 303 11Q263 11 231 10L181 7H150L38 3Q36 10 36 15Q36 20 40 35Z" />
<glyph unicode="n" glyph-name="n" horiz-adv-x="1045" d="M38 32Q63 39 96 44Q159 53 171 65T184 120L186 156Q187 176 187 207L185 514Q185 576 169 594Q142 622 69 633V669Q142 689 181 721Q238 766 277 843L311 842Q314 795 314 775V709L315 691Q327 699 343
711Q403 756 466 784T578 824Q609 832 648 832Q730 832 789 788T865 685T883 448V297Q883 291 882 257T880 179Q880 109 886 90Q891 77 912 64Q1008 51 1024 33V25Q1024 15 1018 0H999L867 1L737 -1Q665 -3 604 0L598 21Q598 27 605 37Q632 49 681 53Q710 55 721
59T748 75Q760 99 760 115Q760 122 758 143Q755 189 754 372V424L756 504Q756 633 704 682Q652 731 565 731Q498 731 434 702T310 613Q308 565 308 531L311 310Q311 137 316 98Q318 82 323 76Q331 68 355 63T410 49T452 38Q472 33 479 18L478 -2H373L157 1Q82 -1
62 -1H37L35 12Q35 19 38 32Z" />
<glyph unicode="o" glyph-name="o" horiz-adv-x="1045" d="M73 402Q73 470 101 547T188 686T311 778Q402 820 533 820Q720 820 845 692T971 384Q971 224 840 99T507 -27Q383 -27 273 38Q191 87 132 183T73 402ZM515 12Q591 12 661 53T774 184T816 394Q816 472
784 575T684 729T525 781Q459 781 391 750T275 631T227 381Q227 199 309 106T515 12Z" />
<glyph unicode="p" glyph-name="p" horiz-adv-x="1045" d="M25 -522Q24 -511 24 -502Q24 -495 26 -485L126 -465Q150 -453 165 -436Q170 -418 170 -400Q170 -246 162 187L159 553Q157 640 148 663Q143 675 133 682Q108 701 33 714L39 744Q147 790 183 815T253
887L265 890Q272 890 285 884Q284 821 284 801L285 691Q359 747 439 774T605 802Q759 802 865 694T971 414Q971 287 912 186T748 35T537 -15Q447 -15 331 34Q312 42 297 48Q295 -32 295 -94Q295 -403 312 -440Q321 -460 368 -464Q448 -470 474 -487Q489 -496 494
-523L395 -525L305 -523L155 -524L25 -522ZM286 622Q284 608 284 596Q284 239 291 196Q305 117 347 85Q412 34 533 34Q658 34 744 120T830 345Q830 511 739 608T499 705Q436 705 383 685T286 622Z" />
<glyph unicode="q" glyph-name="q" horiz-adv-x="1003" d="M846 845H883L885 809L883 595L884 287Q884 206 883 174L882 147L883 107L882 42L885 -74L883 -207L884 -331Q884 -349 883 -391Q882 -404 882 -413Q882 -437 898 -457Q904 -460 910 -464Q921 -471 939
-475T971 -484Q993 -491 1012 -494Q1021 -504 1021 -513L1020 -523Q995 -524 989 -524L706 -519Q648 -519 579 -522Q575 -512 575 -507Q575 -502 579 -493Q715 -466 722 -461Q739 -452 745 -426Q760 -371 760 -181Q760 -28 758 93Q742 86 695 64Q557 1 459 1Q370
1 275 47T125 187T70 386Q70 561 195 681T497 802Q578 802 680 764Q753 736 788 736Q801 736 809 747Q823 764 846 845ZM673 104Q736 128 752 146L759 344Q759 538 737 602T654 713T507 759Q363 759 286 640Q227 550 227 422Q227 333 267 258T391 136T550 88Q617
88 673 104Z" />
<glyph unicode="r" glyph-name="r" horiz-adv-x="683" d="M41 -3L37 10Q37 17 46 31L105 43L188 58Q198 63 202 72Q208 85 208 149Q208 489 204 541T186 608T114 630Q80 635 60 643L64 673Q169 716 205 747Q255 792 290 865L324 864Q330 814 330 642L329 625Q329
619 331 606Q369 675 426 733L449 756Q463 772 476 781Q546 823 580 823Q624 823 652 794T680 721Q680 687 660 668Q633 643 598 643Q582 643 535 660T473 677Q445 677 434 668Q406 646 366 578Q335 527 335 484L340 319L342 121Q345 87 350 77Q354 70 370 60Q478
51 498 47Q512 46 519 45Q562 44 579 33Q588 28 588 18Q588 12 580 2L469 3L427 4L366 3H264L209 0L41 -3Z" />
<glyph unicode="s" glyph-name="s" horiz-adv-x="747" d="M145 254Q182 159 201 131Q239 74 292 43T407 11Q464 11 520 60Q560 97 560 146Q560 211 513 266Q466 320 335 369T158 475Q113 531 113 603Q113 671 150 723T252 801T372 828Q443 828 499 817T597 783Q605
732 610 633L612 601Q599 600 590 600H576Q546 683 485 731T363 780Q303 780 266 744T229 648Q229 603 259 568Q289 533 399 488T560 405T635 311T659 206Q659 137 614 77T500 -7T377 -32Q250 -32 143 15Q133 23 132 45Q132 54 130 74Q114 209 114 234Q114 246
119 250T145 254Z" />
<glyph unicode="t" glyph-name="t" horiz-adv-x="597" d="M286 988L317 987L321 892L319 769Q338 768 343 768Q369 768 442 772Q489 775 532 775Q552 775 592 774Q594 754 594 742Q594 729 588 701H571L416 696L339 694L321 692Q313 667 313 634L316 484L314 220Q314
116 341 82Q367 47 419 47Q445 47 517 63Q539 68 576 96H585Q594 96 599 91T605 76L604 69Q561 22 506 1T358 -21Q293 -21 251 9T196 80T184 259L188 484L187 592V632Q187 660 185 688L168 689L86 686L78 685Q67 685 62 690T56 702Q56 714 63 721T109 745Q135 756
169 786T228 854Q240 874 262 930Q278 971 286 988Z" />
<glyph unicode="u" glyph-name="u" horiz-adv-x="1003" d="M33 785H108L141 783L167 785Q270 785 295 783L296 764Q296 623 292 491Q289 413 289 402Q289 226 300 182T354 112T457 85Q530 85 596 115T710 190Q715 228 715 274Q715 423 718 475Q719 506 719 529Q719
691 703 712T581 744Q546 748 530 751Q522 764 522 771L525 782Q551 785 576 785L735 783Q820 785 825 785Q836 785 846 784L848 711Q841 559 840 335L838 254L842 118Q851 102 858 99Q870 94 907 94H916Q929 94 990 88Q991 75 991 69V58Q857 29 774 0Q741 -11
718 -16Q713 19 713 27V108Q713 113 712 135Q699 126 682 113Q603 52 515 10Q456 -19 401 -19Q296 -19 230 59Q163 137 163 325Q163 335 164 361Q168 409 168 428Q168 435 167 472Q166 488 166 500Q166 509 167 540T168 585Q168 602 167 615L165 668L166 696Q166
712 150 725Q87 742 68 744T33 753V785Z" />
<glyph unicode="v" glyph-name="v" horiz-adv-x="960" d="M-11 794Q100 793 183 787Q242 787 269 789Q288 790 293 790L405 789Q428 785 442 784Q448 782 453 773Q453 763 447 752Q430 747 412 746Q337 738 286 723Q279 718 279 713Q279 703 289 682Q291 677 298
658L398 418Q465 253 522 140Q561 214 594 293T691 542Q709 590 725 661Q728 675 728 685Q728 697 715 711T669 735Q662 736 578 750Q571 754 565 761V769Q565 774 566 782Q590 785 601 785L719 784Q731 784 776 787Q935 787 967 784Q973 782 978 772Q978 763 972
752L941 744Q929 743 922 742Q836 734 816 718Q801 707 769 615Q754 570 725 501L673 375Q662 348 649 316L494 -42H464Q455 -18 442 8L366 169L187 588Q133 710 122 720T-6 762Q-12 778 -12 785L-11 794Z" />
<glyph unicode="w" glyph-name="w" horiz-adv-x="1365" d="M-21 788L363 787Q374 787 378 783T382 771Q382 752 367 743Q297 738 280 726T263 693Q263 683 265 674Q268 662 294 603Q328 524 415 347L534 105Q636 283 699 436L638 596Q628 618 613 662T589 713T527
736T464 759L463 766Q463 772 469 783Q493 789 507 789L564 788H689L727 789L850 787Q865 787 875 788H892Q898 788 909 787L907 755Q892 746 857 742Q791 735 756 717Q745 705 745 696Q745 674 757 641Q761 631 778 579L885 297Q932 171 957 121Q999 198 1075
398Q1102 468 1147 565Q1176 626 1176 670Q1176 693 1159 709T1080 739Q1043 747 1025 754Q1020 762 1020 767Q1020 776 1031 787H1046L1127 788Q1132 788 1173 787T1253 785Q1283 785 1322 787H1372Q1378 785 1380 782T1383 772Q1383 761 1380 748Q1331 742 1303
726T1227 635L1048 205Q1023 145 961 21Q948 -5 942 -21T929 -42T913 -47Q906 -47 894 -43Q866 12 770 260Q744 327 722 374Q558 33 507 -45Q493 -47 486 -47Q479 -47 466 -45L277 350L104 688Q86 719 76 726Q59 737 16 744Q-8 748 -21 750Q-22 765 -22 773Q-22
778 -21 788Z" />
<glyph unicode="x" glyph-name="x" horiz-adv-x="939" d="M30 749Q28 762 28 771V784Q44 788 63 788H100Q186 785 208 785Q277 785 348 787Q392 788 402 788H426Q433 774 433 767Q433 762 429 753L414 751Q341 744 322 733Q314 728 314 720Q314 704 338 673Q455
521 497 477Q591 603 609 638T628 694Q628 717 610 732T522 758Q514 770 514 778L517 788L543 789Q553 789 578 788Q621 785 664 785Q686 785 740 786T822 788H868Q881 782 881 772Q881 767 879 759Q863 755 840 751Q786 743 735 712Q697 689 660 639L518 447L663
265Q763 130 785 106T834 67T910 39Q911 27 911 18Q911 11 907 -1Q889 -1 725 4Q715 4 629 2Q602 1 577 1Q554 1 520 3L523 33Q538 36 556 40Q607 50 629 67Q642 78 642 91Q642 113 506 275L447 346Q405 304 354 227Q325 182 307 160Q273 120 273 93Q273 84 285
75T355 52Q394 44 410 39Q413 26 413 19Q413 13 411 0Q334 4 261 4Q169 4 128 2T76 -1Q64 -1 38 1Q34 15 34 22L36 35Q50 42 71 44Q138 51 190 94T421 381L288 541L146 711Q140 717 131 723Q115 732 88 737Q47 745 30 749Z" />
<glyph unicode="y" glyph-name="y" horiz-adv-x="853" d="M12 788Q34 790 49 790H97L162 792L247 789L316 791Q371 791 415 784Q419 774 419 768L418 760Q397 750 353 746Q291 741 264 724L262 713Q262 703 270 683Q275 671 283 647Q305 573 378 361Q431 208 476
98Q504 158 540 250L625 487Q653 565 668 643Q674 674 674 692Q674 707 661 720T609 742Q538 760 532 764T525 784Q531 789 539 792H601L668 791L768 792L832 791L848 792Q855 792 871 790Q881 785 881 774Q881 764 872 756L852 753Q794 745 763 723Q746 711 734
673Q730 659 721 637Q716 625 707 597T682 531L670 503L669 498L499 50L375 -287Q363 -312 347 -349Q309 -420 302 -427Q272 -464 250 -479L199 -501Q184 -505 167 -505Q122 -505 101 -486T80 -432Q80 -400 111 -374Q121 -371 131 -366L144 -363Q233 -379 255 -379Q276
-368 286 -353Q335 -280 370 -190T405 -69Q405 -35 379 30L268 324Q245 381 131 696Q124 716 113 726L45 751L24 755Q7 762 7 775L12 788Z" />
<glyph unicode="z" glyph-name="z" horiz-adv-x="875" d="M54 -3L55 18Q174 152 222 214L302 316Q315 330 415 445L505 550Q534 581 628 709Q619 715 607 715L566 716Q493 718 376 714Q293 711 248 694Q215 682 189 656Q148 615 130 579Q121 561 101 549Q90 550
85 559Q89 570 103 612T128 690Q161 801 188 866H224Q222 853 221 847Q216 818 216 803Q216 782 234 773Q259 759 398 759Q431 759 476 761Q658 770 706 770Q725 770 793 766Q794 755 794 747Q794 730 788 721Q764 679 704 601L500 352L245 42Q265 42 311 40H552Q594
39 635 59T710 126T762 238Q770 243 778 243Q790 243 797 233L776 91Q767 11 754 -6L148 -5H86Q68 -5 54 -3Z" />
<glyph unicode="{" glyph-name="braceleft" horiz-adv-x="981" d="M841 -407V-442Q674 -419 570 -307T465 -58Q465 16 488 110T511 261Q511 331 450 393T283 470V511Q389 525 450 587T511 720Q511 776 488 870T465 1039Q465 1174 569 1287T841 1422V1387Q724 1359
670 1296T615 1159Q615 1097 637 1001T660 836Q660 735 586 640T365 493Q509 440 584 343T660 145Q660 77 638 -19T615 -178Q615 -251 669 -314T841 -407Z" />
<glyph unicode="|" glyph-name="bar" horiz-adv-x="1024" d="M468 1339H557V-528H468V1339Z" />
<glyph unicode="}" glyph-name="braceright" horiz-adv-x="981" d="M177 1387V1422Q343 1400 448 1288T553 1039Q553 965 530 871T507 719Q507 650 567 588T735 511V470Q628 456 568 394T507 261Q507 205 530 111T553 -58Q553 -193 449 -306T177 -442V-407Q294
-378 348 -315T403 -178Q403 -116 380 -20T357 144Q357 246 431 341T653 488Q509 541 433 638T357 836Q357 904 380 1000T403 1159Q403 1232 349 1295T177 1387Z" />
<glyph unicode="~" glyph-name="asciitilde" horiz-adv-x="1365" d="M1172 773H1215Q1212 646 1143 573T972 499Q926 499 881 512Q821 530 600 621Q444 684 380 684Q309 684 261 641T193 501H150Q157 634 224 704T382 775Q426 775 471 762Q574 732 762 652Q916
586 985 586Q1060 586 1111 634T1172 773Z" />
</font>
</defs>
</svg>
